<?xml version="1.0" encoding="UTF-8" standalone="no"?>
<!-- Generated by IcoMoon.io -->

<svg
   xmlns:dc="http://purl.org/dc/elements/1.1/"
   xmlns:cc="http://creativecommons.org/ns#"
   xmlns:rdf="http://www.w3.org/1999/02/22-rdf-syntax-ns#"
   xmlns:svg="http://www.w3.org/2000/svg"
   xmlns="http://www.w3.org/2000/svg"
   xmlns:sodipodi="http://sodipodi.sourceforge.net/DTD/sodipodi-0.dtd"
   xmlns:inkscape="http://www.inkscape.org/namespaces/inkscape"
   version="1.1"
   width="951"
   height="1024"
   viewBox="0 0 951 1024"
   id="svg2"
   inkscape:version="0.48.5 r10040"
   sodipodi:docname="recommend.svg">
  <metadata
     id="metadata11">
    <rdf:RDF>
      <cc:Work
         rdf:about="">
        <dc:format>image/svg+xml</dc:format>
        <dc:type
           rdf:resource="http://purl.org/dc/dcmitype/StillImage" />
      </cc:Work>
    </rdf:RDF>
  </metadata>
  <defs
     id="defs9" />
  <sodipodi:namedview
     pagecolor="#ffffff"
     bordercolor="#666666"
     borderopacity="1"
     objecttolerance="10"
     gridtolerance="10"
     guidetolerance="10"
     inkscape:pageopacity="0"
     inkscape:pageshadow="2"
     inkscape:window-width="725"
     inkscape:window-height="480"
     id="namedview7"
     showgrid="false"
     inkscape:zoom="0.23046875"
     inkscape:cx="475.5"
     inkscape:cy="512"
     inkscape:window-x="0"
     inkscape:window-y="0"
     inkscape:window-maximized="0"
     inkscape:current-layer="svg2" />
  <g
     id="icomoon-ignore" />
  <path
     d="m 224.00038,704.0005 q 0,-11.14275 -8.14275,-19.2855 -8.14275,-8.14275 -19.2855,-8.14275 -11.57175,0 -19.5,8.14275 -7.92825,8.14275 -7.92825,19.2855 0,11.57175 7.92825,19.5 7.92825,7.92825 19.5,7.92825 11.14275,0 19.2855,-7.92825 8.14275,-7.92825 8.14275,-19.5 z m 68.571,-219.42825 v 274.2855 q 0,11.14275 -8.14275,19.2855 -8.14275,8.14275 -19.2855,8.14275 H 141.71488 q -11.14275,0 -19.2855,-8.14275 -8.14275,-8.14275 -8.14275,-19.2855 v -274.2855 q 0,-11.14275 8.14275,-19.2855 8.14275,-8.14275 19.2855,-8.14275 h 123.42825 q 11.14275,0 19.2855,8.14275 8.14275,8.14275 8.14275,19.2855 z m 507.429,0 q 0,36.85725 -23.57175,63.85725 6.42825,18.85725 6.42825,32.57175 1.2855,32.57175 -18.42825,58.7145 7.2855,24 0,50.14275 -6.42825,24.42825 -23.14275,40.2855 3.85725,48 -21,77.57175 -27.42825,32.57175 -84.42825,33.42825 h -55.2855 q -28.2855,0 -61.7145,-6.64275 -33.429,-6.64275 -52.07175,-12.42825 -18.64275,-5.7855 -51.64275,-16.92825 -52.7145,-18.42825 -67.7145,-18.85725 -11.14275,-0.42825 -19.2855,-8.35725 -8.14275,-7.929 -8.14275,-19.07175 V 484.144 q 0,-10.7145 7.7145,-18.64275 7.7145,-7.92825 18.42825,-8.7855 10.2855,-0.85725 32.57175,-25.2855 22.28625,-24.42825 43.2855,-51.85725 29.14275,-37.2855 43.2855,-51.42825 7.7145,-7.7145 13.2855,-20.57175 5.571,-12.85725 7.5,-20.7855 1.929,-7.92825 5.7855,-25.92825 3,-16.7145 5.35725,-26.14275 2.35725,-9.42825 8.35725,-22.2855 6,-12.85725 14.57175,-21.42825 8.14275,-8.14275 19.2855,-8.14275 19.7145,0 35.35725,4.5 15.64275,4.5 25.7145,11.14275 10.07175,6.64275 17.14275,17.35725 7.071,10.7145 10.2855,19.2855 3.2145,8.571 5.14275,21.42825 1.92825,12.85725 2.14275,19.2855 0.2145,6.42825 0.2145,16.7145 0,16.2855 -4.07175,32.57175 -4.07175,16.28625 -8.14275,25.7145 -4.071,9.42825 -11.7855,24 -1.2855,2.57175 -4.2855,7.7145 -3,5.14275 -4.7145,9.42825 -1.7145,4.2855 -3.42825,10.2855 h 118.7145 q 33.42825,0 57.85725,24.42825 24.429,24.42825 24.42825,57.85725 z"
     id="path5"
     inkscape:connector-curvature="0" />
</svg>
